<svg width="256" height="256" viewBox="0 0 256 256" xmlns="http://www.w3.org/2000/svg">
<defs>
<linearGradient id="vg" x1="0" y1="0" x2="1" y2="1">
<stop offset="0%" stop-color="#E24B4A"/>
<stop offset="100%" stop-color="#EF9F27"/>
</linearGradient>
<linearGradient id="vbg" x1="0" y1="0" x2="0.5" y2="1">
<stop offset="0%" stop-color="#151515"/>
<stop offset="100%" stop-color="#0d0d0d"/>
</linearGradient>
</defs>
<rect width="256" height="256" rx="48" fill="url(#vbg)"/>
<g transform="translate(128, 104)">
<circle cx="-48" cy="-30" r="4.5" fill="#E24B4A" opacity="0.3"/>
<circle cx="48" cy="-40" r="4.5" fill="#E24B4A" opacity="0.3"/>
<circle cx="-16" cy="-56" r="4" fill="#EF9F27" opacity="0.35"/>
<circle cx="20" cy="-58" r="3.5" fill="#E24B4A" opacity="0.25"/>
<circle cx="-40" cy="28" r="4" fill="#EF9F27" opacity="0.25"/>
<circle cx="40" cy="24" r="3.5" fill="#E24B4A" opacity="0.25"/>
<circle cx="0" cy="50" r="3.5" fill="#EF9F27" opacity="0.25"/>
<circle cx="-26" cy="-8" r="6" fill="#E24B4A" opacity="0.5"/>
<circle cx="26" cy="-14" r="6" fill="#EF9F27" opacity="0.5"/>
<circle cx="-14" cy="30" r="5.5" fill="#E24B4A" opacity="0.45"/>
<circle cx="14" cy="32" r="5.5" fill="#EF9F27" opacity="0.45"/>
<line x1="-48" y1="-30" x2="0" y2="0" stroke="#E24B4A" stroke-width="0.8" opacity="0.2"/>
<line x1="48" y1="-40" x2="0" y2="0" stroke="#E24B4A" stroke-width="0.8" opacity="0.2"/>
<line x1="-16" y1="-56" x2="0" y2="0" stroke="#EF9F27" stroke-width="0.8" opacity="0.25"/>
<line x1="20" y1="-58" x2="0" y2="0" stroke="#E24B4A" stroke-width="0.8" opacity="0.2"/>
<line x1="-40" y1="28" x2="0" y2="0" stroke="#EF9F27" stroke-width="0.8" opacity="0.2"/>
<line x1="40" y1="24" x2="0" y2="0" stroke="#E24B4A" stroke-width="0.8" opacity="0.2"/>
<line x1="0" y1="50" x2="0" y2="0" stroke="#EF9F27" stroke-width="0.8" opacity="0.2"/>
<line x1="-26" y1="-8" x2="0" y2="0" stroke="#E24B4A" stroke-width="1.2" opacity="0.4"/>
<line x1="26" y1="-14" x2="0" y2="0" stroke="#EF9F27" stroke-width="1.2" opacity="0.4"/>
<line x1="-14" y1="30" x2="0" y2="0" stroke="#E24B4A" stroke-width="1.2" opacity="0.4"/>
<line x1="14" y1="32" x2="0" y2="0" stroke="#EF9F27" stroke-width="1.2" opacity="0.4"/>
<circle cx="0" cy="0" r="14" fill="url(#vg)"/>
<circle cx="0" cy="0" r="22" fill="none" stroke="url(#vg)" stroke-width="1" opacity="0.3"/>
</g>
<text x="128" y="210" text-anchor="middle" font-family="'Space Grotesk', sans-serif" font-size="30" font-weight="800" letter-spacing="-1" fill="#f0f0f0">indexa</text>
</svg>
